# xmcd CD database file
#
# Track frame offsets:
#	150
#	13925
#	29235
#	48588
#	63873
#	86489
#	103043
#	120539
#	133497
#	145359
#
# Disc length: 2295 seconds
#
# Revision: 1
# Processed by: cddbd v1.5.1PL0 Copyright (c) Steve Scherf et al.
# Submitted via: CDex 1.51
#
DISCID=9608f50a
DTITLE=Memphis Slim and Willie Dixon - The Blues Every Which Wat
DYEAR=1900
DGENRE=Blues
TTITLE0=Choo Choo
TTITLE1=4 O'clock Boogie
TTITLE2=Rub My Root
TTITLE3=C Rocker
TTITLE4=Home To Mamma
TTITLE5=Shaky
TTITLE6=After Hours
TTITLE7=One More Time
TTITLE8=John Henry
TTITLE9=Now Howdy
EXTD=
EXTT0=
EXTT1=
EXTT2=
EXTT3=
EXTT4=
EXTT5=
EXTT6=
EXTT7=
EXTT8=
EXTT9=
PLAYORDER=
